<?xml version="1.0" encoding="UTF-8" standalone="no"?>
<svg
   width="27.631227"
   height="40"
   viewBox="0 0 27.631227 40"
   fill="none"
   version="1.1"
   id="svg20"
   sodipodi:docname="bmc-brand-icon.svg"
   inkscape:version="1.4.2 (f4327f4, 2025-05-13)"
   xmlns:inkscape="http://www.inkscape.org/namespaces/inkscape"
   xmlns:sodipodi="http://sodipodi.sourceforge.net/DTD/sodipodi-0.dtd"
   xmlns="http://www.w3.org/2000/svg"
   xmlns:svg="http://www.w3.org/2000/svg">
  <sodipodi:namedview
     id="namedview20"
     pagecolor="#505050"
     bordercolor="#eeeeee"
     borderopacity="1"
     inkscape:showpageshadow="0"
     inkscape:pageopacity="0"
     inkscape:pagecheckerboard="0"
     inkscape:deskcolor="#505050"
     inkscape:zoom="4.5948718"
     inkscape:cx="119.91629"
     inkscape:cy="2.0675223"
     inkscape:window-width="1920"
     inkscape:window-height="1009"
     inkscape:window-x="-8"
     inkscape:window-y="-8"
     inkscape:window-maximized="1"
     inkscape:current-layer="g19" />
  <g
     clip-path="url(#clip0_2397_300)"
     id="g19">
    <path
       d="M 24.7394,9.30505 24.7119,9.2889 24.6484,9.26953 c 0.0256,0.02157 0.0576,0.03406 0.091,0.03552 z"
       fill="#0d0c22"
       id="path1" />
    <path
       d="M 24.7538,9.29959 C 24.7499,9.2991 24.7461,9.29818 24.7424,9.29688 c -3e-4,0.00252 -3e-4,0.00507 0,0.00761 0.0041,-5.5e-4 0.0081,-0.00224 0.0114,-0.0049 z"
       fill="#0d0c22"
       id="path2" />
    <path
       d="m 25.1172,12.1621 0.0463,-0.0264 0.0172,-0.0096 0.0156,-0.0167 c -0.0293,0.0126 -0.0562,0.0305 -0.0791,0.0527 z"
       fill="#0d0c22"
       id="path3" />
    <path
       d="M 24.8259,9.36442 24.7807,9.32137 24.75,9.30469 c 0.0165,0.02908 0.0437,0.05053 0.0759,0.05973 z"
       fill="#0d0c22"
       id="path4" />
    <path
       d="m 13.4514,37.0977 c -0.0361,0.0156 -0.0678,0.04 -0.092,0.071 l 0.0285,-0.0183 c 0.0194,-0.0178 0.0468,-0.0388 0.0635,-0.0527 z"
       fill="#0d0c22"
       id="path5" />
    <path
       d="m 20.0549,35.8027 c 0,-0.0409 -0.0199,-0.0334 -0.0151,0.1119 0,-0.0118 0.0049,-0.0236 0.007,-0.0349 0.0027,-0.0259 0.0049,-0.0512 0.0081,-0.077 z"
       fill="#0d0c22"
       id="path6" />
    <path
       d="m 19.3734,37.0977 c -0.0362,0.0156 -0.0679,0.04 -0.0922,0.071 l 0.0286,-0.0183 c 0.0193,-0.0178 0.0469,-0.0388 0.0636,-0.0527 z"
       fill="#0d0c22"
       id="path7" />
    <path
       d="M 8.79999,37.4046 C 8.77258,37.3807 8.73902,37.3651 8.70312,37.3594 c 0.02907,0.014 0.05812,0.028 0.07749,0.0387 z"
       fill="#0d0c22"
       id="path8" />
    <path
       d="m 7.74915,36.4018 c -0.00429,-0.0424 -0.0173,-0.0833 -0.03821,-0.1206 0.01481,0.0387 0.02721,0.0783 0.03713,0.1185 z"
       fill="#0d0c22"
       id="path9" />
    <path
       d="M 14.7801,18.4828 C 13.3434,19.0979 11.7129,19.7953 9.59965,19.7953 8.71562,19.7935 7.8359,19.6723 6.98438,19.4348 l 1.46153,15.0055 c 0.05174,0.6272 0.33745,1.212 0.80042,1.6383 0.46296,0.4262 1.06927,0.6628 1.69867,0.6627 0,0 2.0723,0.1076 2.7637,0.1076 0.7443,0 2.9759,-0.1076 2.9759,-0.1076 0.6292,0 1.2354,-0.2367 1.6982,-0.6629 0.4629,-0.4263 0.7485,-1.011 0.8003,-1.6381 l 1.5654,-16.5817 c -0.6996,-0.2389 -1.4056,-0.3977 -2.2015,-0.3977 -1.3765,-5e-4 -2.4856,0.4736 -3.7669,1.0219 z"
       fill="#ffdd00"
       id="path10" />
    <path
       d="m 2.46094,12.0781 0.02475,0.0232 0.01615,0.0097 C 2.4894,12.0986 2.47569,12.0876 2.46094,12.0781 Z"
       fill="#0d0c22"
       id="path11" />
    <path
       d="M 27.508,10.6911 27.2879,9.58098 C 27.0904,8.58492 26.6421,7.64375 25.6197,7.28374 25.292,7.16858 24.9201,7.11908 24.6688,6.88069 24.4175,6.6423 24.3433,6.27207 24.2852,5.92875 24.1775,5.29861 24.0764,4.66793 23.966,4.03887 23.8708,3.49806 23.7955,2.89052 23.5474,2.39437 23.2245,1.72817 22.5546,1.33857 21.8884,1.08081 21.547,0.953382 21.1986,0.845582 20.8449,0.757941 19.1805,0.318833 17.4306,0.157397 15.7183,0.0653782 13.663,-0.0480303 11.6023,-0.0138619 9.55192,0.167621 8.0258,0.306456 6.41843,0.474351 4.96819,1.00225 4.43814,1.19543 3.89195,1.42736 3.4889,1.83687 2.99436,2.34002 2.83293,3.11814 3.19401,3.74559 3.45069,4.19116 3.88549,4.50596 4.34666,4.71421 4.94736,4.98254 5.5747,5.18673 6.21825,5.32337 8.0102,5.71942 9.86618,5.87494 11.6969,5.94113 13.7259,6.02302 15.7583,5.95665 17.7776,5.74256 18.277,5.68767 18.7755,5.62184 19.2731,5.54507 19.8591,5.4552 20.2352,4.68892 20.0625,4.1551 19.8559,3.51689 19.3005,3.26935 18.6725,3.36568 18.58,3.38021 18.488,3.39366 18.3954,3.40711 L 18.3287,3.4168 c -0.2128,0.02691 -0.4255,0.05202 -0.6382,0.07534 -0.4395,0.04735 -0.88,0.0861 -1.3217,0.11623 -0.989,0.06888 -1.9808,0.10063 -2.972,0.10224 -0.974,0 -1.9485,-0.02744 -2.9204,-0.09148 C 10.033,3.59007 9.59066,3.55312 9.1494,3.50828 8.94868,3.48729 8.7485,3.46523 8.54832,3.44048 L 8.35782,3.41626 8.31639,3.41034 8.1189,3.38182 C 7.71531,3.32101 7.31172,3.25106 6.91243,3.16657 6.87214,3.15763 6.8361,3.13522 6.81027,3.10303 6.78444,3.07084 6.77036,3.0308 6.77036,2.98953 6.77036,2.94826 6.78444,2.90822 6.81027,2.87603 6.8361,2.84384 6.87214,2.82143 6.91243,2.81249 H 6.91996 C 7.26598,2.73877 7.61468,2.67581 7.96446,2.62092 8.08105,2.60262 8.198,2.58468 8.31531,2.56711 H 8.31854 C 8.53756,2.55258 8.75765,2.51329 8.97559,2.48746 10.8717,2.29023 12.7792,2.22299 14.6845,2.28621 c 0.9251,0.0269 1.8495,0.08125 2.7703,0.17489 0.198,0.02044 0.395,0.04197 0.5919,0.06619 0.0753,0.00914 0.1512,0.0199 0.2271,0.02905 l 0.1528,0.02207 c 0.4456,0.06636 0.8888,0.1469 1.3297,0.24161 0.6533,0.14207 1.4922,0.18835 1.7828,0.90405 0.0926,0.22708 0.1345,0.47946 0.1857,0.71785 l 0.0651,0.30404 c 0.0017,0.00545 0.0029,0.01103 0.0037,0.01668 0.154,0.7175 0.308,1.43499 0.4623,2.15249 0.0113,0.053 0.0116,0.10777 8e-4,0.16088 C 22.2459,7.12912 22.2243,7.17943 22.1932,7.22382 22.1621,7.2682 22.1221,7.3057 22.0759,7.33397 22.0297,7.36224 21.9781,7.38068 21.9244,7.38814 H 21.9201 L 21.8259,7.40105 21.7328,7.41343 C 21.438,7.45182 21.1427,7.48769 20.8471,7.52105 20.2648,7.58742 19.6817,7.64482 19.0977,7.69325 17.9371,7.78976 16.7742,7.85308 15.609,7.88321 15.0153,7.899 14.4217,7.90635 13.8284,7.90527 11.4666,7.90341 9.10678,7.76614 6.76068,7.49415 6.50668,7.46401 6.25269,7.43173 5.9987,7.3989 6.19565,7.42419 5.85556,7.37953 5.78668,7.36984 5.62524,7.34724 5.46381,7.32374 5.30237,7.29935 4.76048,7.21809 4.22182,7.118 3.68101,7.03029 3.02719,6.92266 2.40189,6.97648 1.8105,7.29935 1.32505,7.56499 0.932149,7.97235 0.684209,8.46707 0.429139,8.99443 0.353264,9.56861 0.239182,10.1353 c -0.114081,0.5666 -0.2916622,1.1763 -0.224397,1.758 0.144755,1.2554 1.022435,2.2757 2.284865,2.5039 1.18764,0.2152 2.38173,0.3896 3.57905,0.5381 4.7033,0.576 9.455,0.6449 14.173,0.2056 0.3843,-0.0359 0.7679,-0.075 1.1511,-0.1174 0.1197,-0.0131 0.2408,7e-4 0.3544,0.0404 0.1137,0.0397 0.217,0.1043 0.3024,0.1892 0.0855,0.0848 0.1509,0.1876 0.1914,0.301 0.0405,0.1134 0.0552,0.2344 0.0429,0.3541 l -0.1194,1.1613 c -0.2408,2.3466 -0.4815,4.6929 -0.7222,7.0392 -0.2511,2.4638 -0.5039,4.9275 -0.7582,7.3911 -0.0718,0.6938 -0.1435,1.3874 -0.2153,2.0809 -0.0688,0.6829 -0.0785,1.3873 -0.2082,2.0621 -0.2045,1.0611 -0.9229,1.7128 -1.9712,1.9512 -0.9603,0.2185 -1.9414,0.3333 -2.9263,0.3422 -1.0918,0.006 -2.1831,-0.0425 -3.275,-0.0366 C 10.7326,37.9061 9.30492,37.7985 8.40518,36.931 7.61468,36.169 7.50544,34.976 7.39782,33.9444 7.25432,32.5787 7.11207,31.2131 6.97109,29.8477 L 6.18005,22.2554 5.66829,17.3429 C 5.65968,17.2616 5.65107,17.1814 5.643,17.0996 5.58166,16.5136 5.16676,15.94 4.51295,15.9696 3.9533,15.9943 3.31724,16.47 3.38289,17.0996 l 0.37938,3.642 0.78458,7.5337 c 0.2235,2.14 0.44646,4.2803 0.66888,6.4209 0.04305,0.4101 0.08341,0.8212 0.12861,1.2312 0.24592,2.2408 1.95715,3.4483 4.07627,3.7884 1.23769,0.1991 2.50549,0.24 3.76149,0.2604 1.61,0.0259 3.2362,0.0878 4.8199,-0.2039 2.3468,-0.4305 4.1075,-1.9975 4.3588,-4.4282 0.0718,-0.7017 0.1435,-1.4036 0.2153,-2.1057 0.2385,-2.3218 0.4768,-4.6438 0.7146,-6.966 l 0.7781,-7.5875 0.3568,-3.4773 c 0.0178,-0.1724 0.0906,-0.3346 0.2077,-0.4624 0.117,-0.1278 0.2722,-0.2146 0.4424,-0.2474 0.671,-0.1308 1.3124,-0.3541 1.7897,-0.8648 0.7599,-0.8131 0.9111,-1.8732 0.6426,-2.9419 z M 2.26521,11.4413 C 2.27543,11.4364 2.2566,11.5241 2.24853,11.565 2.24691,11.5032 2.25014,11.4483 2.26521,11.4413 Z M 2.33032,11.945 C 2.33571,11.9412 2.35185,11.9627 2.36853,11.9885 2.34324,11.9649 2.32763,11.9471 2.33032,11.945 Z m 0.06404,0.0844 c 0.03552,0.0641 0.02314,0.0393 0,0 z m 0.12861,0.1044 H 2.5262 c 0,0.0038 0.00592,0.0076 0.00807,0.0113 C 2.5307,12.141 2.52728,12.1372 2.52297,12.1338 Z m 22.52143,-0.156 c -0.241,0.2292 -0.6043,0.3358 -0.9632,0.389 -4.0251,0.5974 -8.109,0.8998 -12.1782,0.7663 C 8.99065,13.0336 6.10901,12.7102 3.22576,12.3028 2.94324,12.263 2.63705,12.2113 2.44279,12.0031 2.07687,11.6102 2.2566,10.8192 2.35185,10.3446 2.43902,9.90978 2.60584,9.33022 3.12298,9.26834 3.93016,9.17363 4.86757,9.51426 5.66614,9.63533 6.62758,9.78206 7.59262,9.89955 8.56123,9.9878 c 4.13387,0.3767 8.33717,0.318 12.45267,-0.233 0.7501,-0.10081 1.4976,-0.21794 2.2424,-0.3514 0.6635,-0.11892 1.3991,-0.34224 1.8,0.34494 0.275,0.46816 0.3116,1.09456 0.269,1.62356 -0.0131,0.2304 -0.1132,0.4472 -0.2809,0.6059 z"
       fill="#0d0c22"
       id="path12" />
  </g>
  <defs
     id="defs20">
    <clipPath
       id="clip0_2397_300">
      <rect
         width="195"
         height="40"
         fill="#ffffff"
         id="rect19"
         x="0"
         y="0" />
    </clipPath>
    <clipPath
       id="clip1_2397_300">
      <rect
         width="9.8228598"
         height="9.8228598"
         fill="#ffffff"
         transform="translate(185,8)"
         id="rect20"
         x="0"
         y="0" />
    </clipPath>
  </defs>
</svg>
