<?xml version="1.0" encoding="UTF-8" standalone="no"?>
<!-- Created with Inkscape (http://www.inkscape.org/) -->

<svg
   width="1000.0002mm"
   height="1000.0002mm"
   viewBox="0 0 1000.0002 1000.0002"
   version="1.1"
   id="svg1"
   xml:space="preserve"
   xmlns:xlink="http://www.w3.org/1999/xlink"
   xmlns="http://www.w3.org/2000/svg"
   xmlns:svg="http://www.w3.org/2000/svg"><defs
     id="defs1"><linearGradient
       id="linearGradient49"><stop
         style="stop-color:#750198;stop-opacity:1;"
         offset="0"
         id="stop49" /><stop
         style="stop-color:#3062cc;stop-opacity:1;"
         offset="0.33000001"
         id="stop3" /><stop
         style="stop-color:#0093d4;stop-opacity:1;"
         offset="0.66000003"
         id="stop4" /><stop
         style="stop-color:#50bbca;stop-opacity:1;"
         offset="1"
         id="stop50" /></linearGradient><linearGradient
       xlink:href="#linearGradient49"
       id="linearGradient25"
       x1="500.00003"
       y1="879.10913"
       x2="500.00006"
       y2="120.89074"
       gradientUnits="userSpaceOnUse" /></defs><g
     id="layer1"
     transform="matrix(1.3188814,0,0,1.3188814,-159.44064,-159.44064)"
     style="filter:url(#filter4)"><g
       id="g4"><path
         style="fill:#572caf;fill-opacity:1;fill-rule:evenodd;paint-order:markers fill stroke"
         d="M 585.49584,755.70891 699.06397,628.9443 585.49584,672.15538 Z"
         id="path24" /><path
         style="display:inline;fill:#3f4dc0;fill-opacity:1;fill-rule:evenodd;paint-order:markers fill stroke"
         d="M 699.06397,628.9443 585.49584,585.66385 v 86.49153 z"
         id="path25" /></g><g
       id="g5"><path
         style="display:inline;fill:#6419a5;fill-opacity:1;fill-rule:evenodd;paint-order:markers fill stroke"
         d="m 500.38928,672.15538 -85.27023,83.55353 h 170.37679 z"
         id="path20" /><path
         style="fill:#5a26ac;fill-opacity:1;fill-rule:evenodd;paint-order:markers fill stroke"
         d="m 500.38928,672.15538 85.10656,83.55353 v -83.55353 z"
         id="path21" /><path
         style="display:inline;fill:#4a3eb9;fill-opacity:1;fill-rule:evenodd;paint-order:markers fill stroke"
         d="m 500.38928,672.15538 85.10656,-86.49153 v 86.49153 z"
         id="path23" /><path
         style="display:inline;fill:#5a26ac;fill-opacity:1;fill-rule:evenodd;paint-order:markers fill stroke"
         d="m 415.11905,755.70891 v -83.55353 h 85.27023 z"
         id="path26" /><path
         style="display:inline;fill:#4a3eb9;fill-opacity:1;fill-rule:evenodd;paint-order:markers fill stroke"
         d="m 500.38928,672.15538 -85.27023,-86.55189 v 86.55189 z"
         id="path29" /></g><g
       id="g6"><path
         style="display:inline;fill:#572caf;fill-opacity:1;fill-rule:evenodd;paint-order:markers fill stroke"
         d="M 415.11905,755.70891 288.53103,624.47764 415.11905,672.15538 Z"
         id="path30" /><path
         style="display:inline;fill:#3f4dc0;fill-opacity:1;fill-rule:evenodd;paint-order:markers fill stroke"
         d="m 288.53103,624.47764 126.58802,-38.87415 v 86.55189 z"
         id="path31" /></g><g
       id="g7"><path
         style="display:inline;fill:#2a68cd;fill-opacity:1;fill-rule:evenodd;paint-order:markers fill stroke"
         d="m 288.53103,624.47764 126.69295,-120.42396 -0.10493,81.54981 z"
         id="path7" /><path
         style="display:inline;fill:#2073cf;fill-opacity:1;fill-rule:evenodd;paint-order:markers fill stroke"
         d="M 415.22398,504.05368 H 288.07063 l 0.4604,120.42397 z"
         id="path9" /><path
         style="display:inline;fill:#0390d4;fill-opacity:1;fill-rule:evenodd;paint-order:markers fill stroke"
         d="m 288.07063,373.41791 127.29744,49.41308 -0.14409,81.22269 z"
         id="path6" /><path
         style="display:inline;fill:#0f84d2;fill-opacity:1;fill-rule:evenodd;paint-order:markers fill stroke"
         d="M 415.22398,504.05368 H 288.07063 V 373.41791 Z"
         id="path19" /></g><g
       id="g10"><path
         style="display:inline;fill:#31acce;fill-opacity:1;fill-rule:evenodd;paint-order:markers fill stroke"
         d="M 585.65949,246.79176 699.14742,373.64234 585.65949,336.59296 Z"
         id="path45" /><path
         style="display:inline;fill:#149dd1;fill-opacity:1;fill-rule:evenodd;paint-order:markers fill stroke"
         d="M 585.65949,422.7776 699.14742,373.64234 585.65949,336.59296 Z"
         id="path46" /></g><g
       id="g9"><path
         style="display:inline;fill:#35aecd;fill-opacity:1;fill-rule:evenodd;paint-order:markers fill stroke"
         d="m 500.51377,336.59296 -85.1457,-89.8012 v 89.8012 z"
         id="path36" /><path
         style="display:inline;fill:#35aecd;fill-opacity:1;fill-rule:evenodd;paint-order:markers fill stroke"
         d="m 500.51377,336.59296 85.14572,-89.8012 v 89.8012 z"
         id="path37" /><path
         style="display:inline;fill:#41b3cc;fill-opacity:1;fill-rule:evenodd;paint-order:markers fill stroke"
         d="m 415.36807,246.79176 85.1457,89.8012 85.14572,-89.8012 z"
         id="path38" /><path
         style="display:inline;fill:#1ba0d1;fill-opacity:1;fill-rule:evenodd;paint-order:markers fill stroke"
         d="m 415.36807,336.59296 v 86.23803 l 85.1457,-86.23803 z"
         id="path39" /><path
         style="display:inline;fill:#1ba0d1;fill-opacity:1;fill-rule:evenodd;paint-order:markers fill stroke"
         d="m 500.51377,336.59296 h 85.14572 v 86.18464 z"
         id="path40" /></g><g
       id="g8"><path
         style="display:inline;fill:#149dd1;fill-opacity:1;fill-rule:evenodd;paint-order:markers fill stroke"
         d="m 415.36807,336.59296 -127.29744,36.82495 127.29744,49.41308 z"
         id="path42" /><path
         style="display:inline;fill:#31acce;fill-opacity:1;fill-rule:evenodd;paint-order:markers fill stroke"
         d="M 288.07063,373.41791 415.36807,246.79176 v 89.8012 z"
         id="path43" /></g><path
       d="M 499.99997,120.89081 A 379.10898,379.10934 0 0 0 120.89081,499.99997 379.10898,379.10934 0 0 0 499.99997,879.10913 379.10898,379.10934 0 0 0 879.10913,499.99997 379.10898,379.10934 0 0 0 499.99997,120.89081 Z m -4.67982,29.75167 c 27.57629,-0.24545 55.1922,2.60574 82.0627,8.73746 30.00599,6.82917 59.09727,17.64058 86.29395,32.06419 37.37716,19.76844 71.04296,46.4793 98.91128,78.27067 16.29614,18.56827 30.65093,38.85712 42.6315,60.43094 18.0022,32.33405 30.80379,67.58352 37.76876,103.89237 5.84575,30.43901 7.63364,61.65997 5.26634,92.56231 -1.52627,20.5509 -4.94853,41.00202 -10.12186,60.95906 -6.7543,25.99425 -16.48166,51.1702 -28.96619,74.95047 -18.11587,34.63989 -42.24275,66.13601 -70.81015,92.80054 -31.66683,29.61344 -68.88566,53.18111 -109.14786,69.18854 -29.02123,11.58716 -59.56605,19.18954 -90.60067,22.63893 -24.66289,2.73752 -49.7279,2.87218 -74.40424,0.31109 -26.83615,-2.77666 -53.30413,-8.65042 -78.79106,-17.49247 -31.46625,-10.8834 -61.34544,-26.3946 -88.41838,-45.7321 -26.44204,-18.88926 -50.25098,-41.46903 -70.45358,-66.92459 -20.29522,-25.52575 -36.98969,-53.94598 -49.4254,-84.08996 -13.29383,-32.21644 -21.72048,-66.41728 -24.90443,-101.08169 -2.12375,-22.67888 -1.96231,-45.63127 0.38086,-68.2687 2.44387,-23.41108 7.23081,-46.55791 14.32884,-68.99165 14.18582,-45.15524 37.80122,-87.28393 68.70588,-123.11704 36.00938,-41.90884 82.22844,-74.86413 133.41667,-95.59054 40.06113,-16.25888 83.11729,-24.68297 126.27704,-25.51783 z"
       style="opacity:1;fill:url(#linearGradient25);fill-rule:evenodd;paint-order:markers fill stroke"
       id="path22" /></g></svg>
